<svg xmlns="http://www.w3.org/2000/svg" xmlns:xlink="http://www.w3.org/1999/xlink" width="92" height="32" viewBox="0 0 92 32">
  <defs>
    <clipPath id="clip-path">
      <rect id="Rectangle_2382" data-name="Rectangle 2382" width="92" height="32" transform="translate(0 0.5)" fill="#fff"/>
    </clipPath>
  </defs>
  <g id="app-store-link-01eafd33" transform="translate(0 -0.5)" clip-path="url(#clip-path)">
    <path id="Path_15249" data-name="Path 15249" d="M91.994,7.255c0-.245,0-.491,0-.736a11.4,11.4,0,0,0-.143-1.6,5.462,5.462,0,0,0-.477-1.523,5.11,5.11,0,0,0-.908-1.3,4.972,4.972,0,0,0-1.244-.943,5.05,5.05,0,0,0-1.467-.5A9.721,9.721,0,0,0,86.216.511c-.235,0-.475-.008-.709-.01-.277,0-.558,0-.834,0H7.33c-.282,0-.561,0-.841,0-.235,0-.47.007-.707.01A9.941,9.941,0,0,0,4.242.652,4.993,4.993,0,0,0,.63,3.394,5.391,5.391,0,0,0,.15,4.917a10.889,10.889,0,0,0-.137,1.6C0,6.763,0,7.01,0,7.255v18.49c0,.249,0,.49.013.739a10.907,10.907,0,0,0,.137,1.6,5.454,5.454,0,0,0,.48,1.523A4.979,4.979,0,0,0,1.535,30.9a4.889,4.889,0,0,0,1.245.943,4.966,4.966,0,0,0,1.462.5,9.955,9.955,0,0,0,1.539.143c.238.005.472.008.707.008H84.673c.277,0,.558,0,.834,0,.234,0,.474,0,.709-.008a9.825,9.825,0,0,0,1.536-.143,5.056,5.056,0,0,0,1.467-.5,4.856,4.856,0,0,0,1.244-.943,5.114,5.114,0,0,0,.908-1.292,5.47,5.47,0,0,0,.477-1.523,11.531,11.531,0,0,0,.143-1.6c0-.25,0-.49,0-.739.005-.29.005-.579.005-.873V8.129c0-.293,0-.583-.005-.873m-.665,17.616c0,.29,0,.573-.005.86,0,.26,0,.5,0,.744a10.542,10.542,0,0,1-.131,1.483,4.762,4.762,0,0,1-.415,1.336,4.368,4.368,0,0,1-.781,1.109,4.113,4.113,0,0,1-1.076.817,4.337,4.337,0,0,1-1.282.441,9.276,9.276,0,0,1-1.438.132c-.224.005-.46.008-.689.008l-.834,0-78.181,0c-.234,0-.462,0-.694-.008a9.355,9.355,0,0,1-1.437-.132,4.37,4.37,0,0,1-1.274-.437,4.134,4.134,0,0,1-1.074-.814,4.239,4.239,0,0,1-.786-1.116,4.747,4.747,0,0,1-.417-1.326,10.492,10.492,0,0,1-.129-1.5c0-.169-.011-.732-.011-.732V7.255S.677,6.7.682,6.539a10.559,10.559,0,0,1,.128-1.5,4.7,4.7,0,0,1,.418-1.329,4.282,4.282,0,0,1,.781-1.119,4.238,4.238,0,0,1,1.078-.819A4.34,4.34,0,0,1,4.356,1.34,9.3,9.3,0,0,1,5.8,1.208L6.49,1.2H85.5l.7.01a9.227,9.227,0,0,1,1.429.13,4.437,4.437,0,0,1,1.283.437,4.261,4.261,0,0,1,1.071.814,4.455,4.455,0,0,1,.786,1.123,4.757,4.757,0,0,1,.412,1.319,10.909,10.909,0,0,1,.133,1.51c0,.226,0,.47,0,.712.005.3.005.586.005.873V24.872Z" fill="#383838"/>
    <g id="Group_14961" data-name="Group 14961">
      <path id="Path_15250" data-name="Path 15250" d="M19.217,16.41A4.128,4.128,0,0,1,21.1,12.957a4,4,0,0,0-3.19-1.8c-1.343-.147-2.644.837-3.327.837s-1.752-.821-2.886-.8a4.232,4.232,0,0,0-3.577,2.27c-1.546,2.785-.392,6.879,1.089,9.131.741,1.1,1.607,2.336,2.74,2.29,1.109-.047,1.523-.735,2.862-.735s1.715.735,2.872.708c1.19-.02,1.938-1.108,2.654-2.22a9.3,9.3,0,0,0,1.214-2.572A3.96,3.96,0,0,1,19.217,16.41Z" fill="#383838"/>
      <path id="Path_15251" data-name="Path 15251" d="M17.033,9.68a4.164,4.164,0,0,0,.892-2.9,3.942,3.942,0,0,0-3.479,4.176,3.227,3.227,0,0,0,2.588-1.273" fill="#383838"/>
    </g>
    <path id="Path_15252" data-name="Path 15252" d="M32.525,22.211H28.885L28.011,24.9H26.469l3.448-9.933h1.6L34.965,24.9H33.4l-.873-2.685Zm-3.263-1.239h2.884l-1.421-4.357h-.041l-1.422,4.357Z" fill="#383838"/>
    <path id="Path_15253" data-name="Path 15253" d="M42.408,21.275c0,2.25-1.157,3.7-2.9,3.7A2.346,2.346,0,0,1,37.311,23.7H37.28v3.587H35.852V17.653h1.383v1.205h.026a2.451,2.451,0,0,1,2.216-1.28c1.768,0,2.931,1.453,2.931,3.7m-1.469,0c0-1.468-.728-2.432-1.84-2.432s-1.825.986-1.825,2.432.735,2.436,1.825,2.436S40.939,22.755,40.939,21.276Z" fill="#383838"/>
    <path id="Path_15254" data-name="Path 15254" d="M50.068,21.275c0,2.25-1.157,3.7-2.9,3.7A2.346,2.346,0,0,1,44.972,23.7H44.94v3.587H43.512V17.653h1.383v1.205h.026a2.45,2.45,0,0,1,2.216-1.28c1.768,0,2.931,1.453,2.931,3.7m-1.469,0c0-1.468-.728-2.432-1.84-2.432s-1.825.986-1.825,2.432.734,2.436,1.825,2.436S48.6,22.755,48.6,21.276Z" fill="#383838"/>
    <path id="Path_15255" data-name="Path 15255" d="M55.131,22.127a2.047,2.047,0,0,0,2.282,1.632c1.258,0,2.071-.645,2.071-1.535,0-.771-.524-1.232-1.761-1.548l-1.236-.31c-1.754-.442-2.568-1.293-2.568-2.678,0-1.715,1.436-2.892,3.474-2.892s3.4,1.177,3.448,2.892H59.4a1.8,1.8,0,0,0-2.026-1.59c-1.151,0-1.938.606-1.938,1.487,0,.7.5,1.116,1.733,1.433l1.052.268c1.958.481,2.773,1.3,2.773,2.755,0,1.858-1.422,3.022-3.686,3.022-2.118,0-3.547-1.136-3.639-2.934h1.463Z" fill="#383838"/>
    <path id="Path_15256" data-name="Path 15256" d="M64.079,15.938v1.715H65.4V18.83H64.079v3.993c0,.622.266.91.848.91a4.58,4.58,0,0,0,.47-.035v1.171a3.83,3.83,0,0,1-.794.068c-1.41,0-1.96-.551-1.96-1.954V18.831H61.633V17.655h1.011V15.939h1.435Z" fill="#383838"/>
    <path id="Path_15257" data-name="Path 15257" d="M66.168,21.275c0-2.279,1.29-3.712,3.3-3.712s3.3,1.433,3.3,3.712-1.278,3.71-3.3,3.71S66.168,23.559,66.168,21.275Zm5.147,0c0-1.564-.689-2.487-1.846-2.487s-1.847.929-1.847,2.487.689,2.484,1.847,2.484S71.315,22.842,71.315,21.275Z" fill="#383838"/>
    <path id="Path_15258" data-name="Path 15258" d="M73.95,17.653h1.362v1.232h.032a1.673,1.673,0,0,1,1.675-1.309,2.139,2.139,0,0,1,.488.055v1.392a1.916,1.916,0,0,0-.641-.09A1.474,1.474,0,0,0,75.378,20.6v4.3H73.949V17.653Z" fill="#383838"/>
    <path id="Path_15259" data-name="Path 15259" d="M84.1,22.769a2.813,2.813,0,0,1-3,2.218c-2.025,0-3.282-1.412-3.282-3.678s1.263-3.745,3.221-3.745,3.137,1.376,3.137,3.573v.508H79.258v.09a1.853,1.853,0,0,0,1.873,2.051,1.57,1.57,0,0,0,1.607-1.019H84.1Zm-4.83-2.161h3.48a1.711,1.711,0,0,0-1.708-1.84A1.794,1.794,0,0,0,79.265,20.607Z" fill="#383838"/>
    <path id="Path_15260" data-name="Path 15260" d="M29.083,7.483a2.077,2.077,0,0,1,2.158,2.372c0,1.5-.792,2.4-2.158,2.4H27.426V7.483Zm-.944,4.1H29c.96,0,1.514-.62,1.514-1.716S29.953,8.159,29,8.159h-.865v3.423Z" fill="#383838"/>
    <path id="Path_15261" data-name="Path 15261" d="M32.043,10.454c0-1.161.623-1.868,1.633-1.868s1.632.707,1.632,1.868-.62,1.872-1.632,1.872S32.043,11.621,32.043,10.454Zm2.563,0c0-.782-.338-1.238-.929-1.238s-.927.456-.927,1.238.333,1.24.927,1.24S34.606,11.239,34.606,10.454Z" fill="#383838"/>
    <path id="Path_15262" data-name="Path 15262" d="M39.651,12.258h-.709L38.227,9.6h-.055l-.712,2.654h-.7l-.954-3.6H36.5l.62,2.748h.05l.712-2.748h.656l.712,2.748H39.3l.618-2.748H40.6Z" fill="#383838"/>
    <path id="Path_15263" data-name="Path 15263" d="M41.4,8.655h.657v.572h.052a1.033,1.033,0,0,1,1.033-.642c.773,0,1.2.483,1.2,1.339v2.334h-.683V10.1c0-.578-.241-.865-.747-.865a.811.811,0,0,0-.826.913v2.108H41.4v-3.6Z" fill="#383838"/>
    <path id="Path_15264" data-name="Path 15264" d="M46.117,7.249h-.683v5.009h.683Z" fill="#383838"/>
    <path id="Path_15265" data-name="Path 15265" d="M47.066,10.454c0-1.161.623-1.868,1.633-1.868s1.633.707,1.633,1.868-.62,1.872-1.633,1.872S47.066,11.621,47.066,10.454Zm2.563,0c0-.782-.338-1.238-.929-1.238s-.927.456-.927,1.238.333,1.24.927,1.24S49.63,11.239,49.63,10.454Z" fill="#383838"/>
    <path id="Path_15266" data-name="Path 15266" d="M51.051,11.239c0-.649.464-1.022,1.287-1.076l.938-.055V9.8c0-.379-.243-.6-.709-.6-.381,0-.646.147-.721.4h-.662c.069-.619.629-1.015,1.414-1.015.868,0,1.359.449,1.359,1.21v2.462H53.3V11.75h-.053a1.154,1.154,0,0,1-1.042.566,1.062,1.062,0,0,1-1.153-1.078m2.225-.309v-.3l-.847.055c-.477.034-.691.2-.691.52s.269.514.641.514A.829.829,0,0,0,53.276,10.93Z" fill="#383838"/>
    <path id="Path_15267" data-name="Path 15267" d="M54.853,10.454c0-1.138.564-1.858,1.438-1.858a1.13,1.13,0,0,1,1.06.632H57.4V7.248h.683v5.009h-.655v-.569h-.055a1.19,1.19,0,0,1-1.087.627c-.882,0-1.438-.719-1.438-1.861m.707,0c0,.764.346,1.223.926,1.223s.931-.466.931-1.221-.359-1.223-.931-1.223S55.558,9.695,55.558,10.453Z" fill="#383838"/>
    <path id="Path_15268" data-name="Path 15268" d="M60.914,10.454c0-1.161.623-1.868,1.635-1.868s1.632.707,1.632,1.868-.62,1.872-1.632,1.872S60.914,11.621,60.914,10.454Zm2.563,0c0-.782-.338-1.238-.928-1.238s-.928.456-.928,1.238.333,1.24.928,1.24S63.477,11.239,63.477,10.454Z" fill="#383838"/>
    <path id="Path_15269" data-name="Path 15269" d="M65.1,8.655h.657v.572h.052a1.033,1.033,0,0,1,1.033-.642c.773,0,1.2.483,1.2,1.339v2.334h-.683V10.1c0-.578-.242-.865-.747-.865a.812.812,0,0,0-.826.913v2.108H65.1v-3.6Z" fill="#383838"/>
    <path id="Path_15270" data-name="Path 15270" d="M71.9,7.757v.915h.75v.6H71.9v1.852c0,.378.15.543.49.543a1.866,1.866,0,0,0,.26-.017v.593a2.108,2.108,0,0,1-.372.035c-.76,0-1.061-.278-1.061-.972V9.27h-.549v-.6h.549V7.757H71.9Z" fill="#383838"/>
    <path id="Path_15271" data-name="Path 15271" d="M73.578,7.248h.678V9.232h.055a1.06,1.06,0,0,1,1.055-.645c.736,0,1.192.486,1.192,1.344v2.326h-.683v-2.15c0-.576-.259-.868-.741-.868a.827.827,0,0,0-.873.913v2.1h-.683Z" fill="#383838"/>
    <path id="Path_15272" data-name="Path 15272" d="M80.544,11.284a1.41,1.41,0,0,1-1.5,1.044c-.992,0-1.6-.708-1.6-1.861s.62-1.88,1.6-1.88,1.543.684,1.543,1.816v.248H78.14v.04c.023.633.375,1.032.923,1.032a.821.821,0,0,0,.823-.437h.658Zm-2.4-1.16h1.749a.855.855,0,0,0-.852-.933A.9.9,0,0,0,78.14,10.124Z" fill="#383838"/>
  </g>
</svg>
