<svg xmlns="http://www.w3.org/2000/svg" xmlns:xlink="http://www.w3.org/1999/xlink" width="45" height="45" viewBox="0 0 45 45">
  <defs>
    <clipPath id="clip-path">
      <rect id="Rectangle_2026" data-name="Rectangle 2026" width="45" height="45" transform="translate(92 105)" fill="#f37728"/>
    </clipPath>
  </defs>
  <g id="Mask_Group_3536" data-name="Mask Group 3536" transform="translate(-92 -105)" clip-path="url(#clip-path)">
    <g id="Layer_2_00000048484908077132529190000000221672739959648445_" transform="translate(91.713 104.772)">
      <g id="Layer_1-2">
        <g id="meat">
          <path id="Path_4452" data-name="Path 4452" d="M45.067,17.762c-2.272-7.394-8.4-7.874-15.836-6.143a10.23,10.23,0,0,1-8.788-1.953C13.848,4.279,8.93,2.69,5.859,4.918-.186,8.548-.311,17.07.879,23.124c5.7,28.219,47.81,22.014,44.188-5.362ZM6.835,7.474c2.734-2.459,7.439.675,11.992,4.216A12.817,12.817,0,0,0,29.87,14.176c10.909-2.734,13.67,2.468,12.774,8.175-1.065,4.616-5.468,7.874-9.818,9.3,1.314-1.056,5.646-7.909,2.379-8.317-2.636.027.293,3.915-7.829,9.445a32.311,32.311,0,0,1-7.288-.3,16.725,16.725,0,0,0,7.5-8.788,1.317,1.317,0,0,0-2.521-.763c-1.5,4.039-5.077,7.039-9,8.619-5.672-1.953-8.859-5.583-11.025-10.395C2.734,16.475,2.122,10.812,6.835,7.474ZM37.309,33.838c-9.125,8.38-28.379,6.711-32.977-8.371,7.128,11.762,25.5,13.022,35.871,5.148a17.455,17.455,0,0,1-2.912,3.249Z" fill="#f37728"/>
          <path id="Path_4453" data-name="Path 4453" d="M13.084,23.63a5.665,5.665,0,0,0,5.654-5.663c-.266-7.492-11.051-7.492-11.318,0A5.662,5.662,0,0,0,13.084,23.63Zm0-8.69a3.039,3.039,0,0,1,0,6.063,3.039,3.039,0,0,1,0-6.063Z" fill="#f37728"/>
        </g>
      </g>
    </g>
  </g>
</svg>
