<svg xmlns="http://www.w3.org/2000/svg" xmlns:xlink="http://www.w3.org/1999/xlink" width="20" height="20" viewBox="0 0 20 20">
  <defs>
    <clipPath id="clip-path">
      <rect id="Rectangle_1978" data-name="Rectangle 1978" width="20" height="20" transform="translate(1707 21.198)" fill="#fff"/>
    </clipPath>
  </defs>
  <g id="Mask_Group_3592" data-name="Mask Group 3592" transform="translate(-1707 -21.198)" clip-path="url(#clip-path)">
    <g id="Page-1" transform="translate(1707 21.198)">
      <g id="Core" transform="translate(-212 -422)">
        <g id="shopping-cart" transform="translate(212 422)">
          <path id="Shape" d="M6,16a2,2,0,1,0,2,2,2.006,2.006,0,0,0-2-2ZM0,0V2H2L5.6,9.6,4.2,12A3.553,3.553,0,0,0,4,13a2.006,2.006,0,0,0,2,2H18V13H6.4a.215.215,0,0,1-.2-.2v-.1L7.1,11h7.4a1.824,1.824,0,0,0,1.7-1l3.6-6.5A.551.551,0,0,0,20,3a.945.945,0,0,0-1-1H4.2L3.3,0ZM16,16a2,2,0,1,0,2,2,2.006,2.006,0,0,0-2-2Z" fill="#fff" fill-rule="evenodd"/>
        </g>
      </g>
    </g>
  </g>
</svg>
