<svg xmlns="http://www.w3.org/2000/svg" xmlns:xlink="http://www.w3.org/1999/xlink" width="45" height="45" viewBox="0 0 45 45">
  <defs>
    <clipPath id="clip-path">
      <rect id="Rectangle_2026" data-name="Rectangle 2026" width="45" height="45" transform="translate(92 105)"/>
    </clipPath>
  </defs>
  <g id="Mask_Group_3537" data-name="Mask Group 3537" transform="translate(-92 -105)" clip-path="url(#clip-path)">
    <g id="Layer_2" data-name="Layer 2" transform="translate(92.025 105)">
      <g id="Layer_1" data-name="Layer 1">
        <g id="chicken_leg" data-name="chicken leg">
          <path id="Path_4454" data-name="Path 4454" d="M41.229,3.714A12.824,12.824,0,0,0,22.6,4.323l-7.128,8.143A12.041,12.041,0,0,0,13.811,25.8L8.3,31.306a5.261,5.261,0,0,0-6.77.58,5.3,5.3,0,0,0,2.679,8.888,5.271,5.271,0,1,0,9.468-4.091l5.551-5.542a12.041,12.041,0,0,0,13.056-1.663L40.5,22.447a12.853,12.853,0,0,0,.725-18.733Zm-24.266,26-6.016,6.016a1.373,1.373,0,0,0,.309,2.118A2.66,2.66,0,0,1,7.5,41.587a2.64,2.64,0,0,1-.783-1.934,1.277,1.277,0,0,0-.377-.967,1.315,1.315,0,0,0-.967-.377,2.621,2.621,0,0,1-1.934-.783A2.66,2.66,0,1,1,7.2,33.763a1.373,1.373,0,0,0,2.118.309l5.948-6.025a12.167,12.167,0,0,0,1.7,1.663Zm25.4-16.577a10.1,10.1,0,0,1-3.549,7.331L30.581,27.5A9.381,9.381,0,0,1,17.409,14.188l7.157-8.143C30.794-1.122,42.757,3.636,42.361,13.134Z"/>
          <path id="Path_4455" data-name="Path 4455" d="M28.192,5.987a1.306,1.306,0,0,0-1.838.116L19.836,13.54c-1.1,1.122-3.443,5.8-.793,6.209a1.306,1.306,0,0,0,1.393-1.209A5.542,5.542,0,0,1,21.8,15.261l6.519-7.437a1.306,1.306,0,0,0-.126-1.838Z"/>
        </g>
      </g>
    </g>
  </g>
</svg>
