<svg xmlns="http://www.w3.org/2000/svg" xmlns:xlink="http://www.w3.org/1999/xlink" width="28" height="29" viewBox="0 0 28 29">
  <defs>
    <clipPath id="clip-path">
      <rect id="Rectangle_2034" data-name="Rectangle 2034" width="28" height="29" transform="translate(31 315)" fill="#f2f2f2"/>
    </clipPath>
  </defs>
  <g id="Mask_Group_3555" data-name="Mask Group 3555" transform="translate(-31 -315)" clip-path="url(#clip-path)">
    <g id="_6593905_and_chilli_food_fruits_pepper_icon" data-name="6593905_and_chilli_food_fruits_pepper_icon" transform="translate(29.9 312.9)">
      <path id="Path_4501" data-name="Path 4501" d="M14.617,15.239h0A15.975,15.975,0,0,1,8.6,27.886L6.842,29.234a.966.966,0,0,0-.207,1.348,1.089,1.089,0,0,0,.933.518.381.381,0,0,0,.311-.1l4.25-1.555A18.208,18.208,0,0,0,23.636,15.135,15.719,15.719,0,0,0,14.617,15.239Z"/>
      <path id="Path_4502" data-name="Path 4502" d="M20.733,7.982a5.747,5.747,0,0,1,2.384-4.043,1.115,1.115,0,0,0,.207-1.451,1.115,1.115,0,0,0-1.451-.207A7.323,7.323,0,0,0,18.66,7.775a4.791,4.791,0,0,0-4.147,4.665v.622a17.418,17.418,0,0,1,9.226,0V12.44A4.4,4.4,0,0,0,20.733,7.982Z"/>
    </g>
  </g>
</svg>
