<svg xmlns="http://www.w3.org/2000/svg" xmlns:xlink="http://www.w3.org/1999/xlink" width="28" height="29" viewBox="0 0 28 29">
  <defs>
    <clipPath id="clip-path">
      <rect id="Rectangle_2033" data-name="Rectangle 2033" width="28" height="29" transform="translate(-0.248 -0.44)" fill="#f2f2f2"/>
    </clipPath>
  </defs>
  <g id="Mask_Group_3553" data-name="Mask Group 3553" transform="translate(0.248 0.44)" clip-path="url(#clip-path)">
    <g id="_6593812_and_chilli_food_fruits_pepper_icon" data-name="6593812_and_chilli_food_fruits_pepper_icon" transform="translate(6.954 1.892)">
      <path id="Path_4496" data-name="Path 4496" d="M11.373,6.644A6.194,6.194,0,0,1,14.035,1.8" transform="translate(-0.249 -1.796)" fill="none" stroke="#000" stroke-linecap="round" stroke-linejoin="round" stroke-miterlimit="10" stroke-width="1.197"/>
      <path id="Path_4497" data-name="Path 4497" d="M11.785,8.451v2.567a16,16,0,0,1-5.8,12.36L4.369,24.613l3.9-1.426A15.627,15.627,0,0,0,18.345,8.451h0a3.389,3.389,0,0,0-3.328-3.423h0A3.311,3.311,0,0,0,11.785,8.451Z" transform="translate(-4.369 0.106)" fill="none" stroke="#000" stroke-linecap="round" stroke-linejoin="round" stroke-miterlimit="10" stroke-width="1.197"/>
      <path id="Path_4498" data-name="Path 4498" d="M15.633,7.966h0a11.342,11.342,0,0,0-6.655,0h0" transform="translate(-1.658 1.541)" fill="none" stroke="#000" stroke-linecap="round" stroke-linejoin="round" stroke-miterlimit="10" stroke-width="1.197"/>
    </g>
  </g>
</svg>
