<svg xmlns="http://www.w3.org/2000/svg" width="78.363" height="27.438" viewBox="0 0 78.363 27.438">
  <g id="Layer_2" data-name="Layer 2" transform="translate(0 0)">
    <path id="Path_4285" data-name="Path 4285" d="M277.66,150.1a4.6,4.6,0,0,1-3.266-1.154,4.869,4.869,0,0,1-1.408-3.691V142.7h3.1v2.562a1.872,1.872,0,0,0,.423,1.408,1.665,1.665,0,0,0,1.154.337,1.632,1.632,0,0,0,1.153-.337,1.826,1.826,0,0,0,.423-1.408v-1.238a2.969,2.969,0,0,0-1.041-2.253,9.315,9.315,0,0,0-1.182-.731,10.885,10.885,0,0,1-1.942-1.24,6.236,6.236,0,0,1-1.549-2.054,5.818,5.818,0,0,1-.535-2.477v-.484a4.881,4.881,0,0,1,1.408-3.691,5.2,5.2,0,0,1,6.53,0,4.882,4.882,0,0,1,1.408,3.691V136.5h-3.1v-1.717a1.824,1.824,0,0,0-.423-1.408,1.6,1.6,0,0,0-1.153-.339,1.656,1.656,0,0,0-1.154.339,1.873,1.873,0,0,0-.423,1.408v.479a2.881,2.881,0,0,0,1.041,2.223,8.865,8.865,0,0,0,1.1.676,11.236,11.236,0,0,1,2.026,1.294,5.874,5.874,0,0,1,2.083,4.56v1.238a4.881,4.881,0,0,1-1.408,3.691,4.59,4.59,0,0,1-3.264,1.154m-12.779-11.2h1.576a1.659,1.659,0,0,0,1.154-.339,1.88,1.88,0,0,0,.423-1.408v-2.138a1.942,1.942,0,0,0-.423-1.408,1.662,1.662,0,0,0-1.154-.339h-1.576Zm0,10.977h-3.1v-19.7h4.672a4.591,4.591,0,0,1,3.266,1.184,4.727,4.727,0,0,1,1.408,3.659v2.138a4.768,4.768,0,0,1-1.408,3.691A4.6,4.6,0,0,1,266.456,142h-1.576Zm-10.436.225a4.6,4.6,0,0,1-3.266-1.154,4.861,4.861,0,0,1-1.415-3.688V130.172h3.1v15.088a1.908,1.908,0,0,0,.395,1.408,1.713,1.713,0,0,0,1.182.337,1.672,1.672,0,0,0,1.154-.337,1.889,1.889,0,0,0,.421-1.408V130.172h3.1v15.088a5,5,0,0,1-1.408,3.691,4.714,4.714,0,0,1-3.264,1.154M244,138.22h-3.152v-8.048h-3.1v19.7h3.1v-8.556H244v8.556h3.1v-19.7H244ZM230.633,150.1a4.724,4.724,0,0,1-3.266-1.154,4.988,4.988,0,0,1-1.408-3.691V134.784a5,5,0,0,1,1.408-3.691,4.722,4.722,0,0,1,3.259-1.145,4.6,4.6,0,0,1,3.264,1.153,4.876,4.876,0,0,1,1.408,3.691v1.745h-3.1v-1.752a1.912,1.912,0,0,0-.393-1.408,1.719,1.719,0,0,0-1.182-.339,1.661,1.661,0,0,0-1.154.339,1.887,1.887,0,0,0-.423,1.408v10.47a1.872,1.872,0,0,0,.423,1.408,1.668,1.668,0,0,0,1.154.337,1.751,1.751,0,0,0,1.182-.337,1.915,1.915,0,0,0,.393-1.408v-2.533h3.1v2.533a4.881,4.881,0,0,1-1.408,3.691,4.588,4.588,0,0,1-3.264,1.154" transform="translate(-203.968 -122.666)" fill="#f47729"/>
    <path id="Path_4286" data-name="Path 4286" d="M166.538,235.747a.106.106,0,0,0,0-.037.03.03,0,0,0,0,.01c-.032.053-.057.093-.078.127C166.474,235.841,166.494,235.821,166.538,235.747Z" transform="translate(-152.041 -214.975)" fill="#f47729"/>
    <path id="Path_4287" data-name="Path 4287" d="M166.081,234.911a.138.138,0,0,1,.009-.031,1.146,1.146,0,0,0-.179.3Z" transform="translate(-151.561 -214.251)" fill="#f47729"/>
    <path id="Path_4288" data-name="Path 4288" d="M167.24,234.858a.514.514,0,0,1,.027-.048l-.025.039A.071.071,0,0,0,167.24,234.858Z" transform="translate(-152.721 -214.19)" fill="#f47729"/>
    <path id="Path_4289" data-name="Path 4289" d="M169.16,81.79l.009.008.022.009Z" transform="translate(-154.397 -80.644)" fill="#f47729"/>
    <path id="Path_4290" data-name="Path 4290" d="M203.8,131.065v-.045A.174.174,0,0,0,203.8,131.065Z" transform="translate(-184.627 -123.609)" fill="#f47729"/>
    <path id="Path_4291" data-name="Path 4291" d="M120.488,73.544c.048,0,.067-.01.07-.014C120.513,73.536,120.478,73.541,120.488,73.544Z" transform="translate(-111.918 -73.435)" fill="#f47729"/>
    <path id="Path_4292" data-name="Path 4292" d="M167.447,80.89c-.017.008.076.038.149.076C167.547,80.937,167.5,80.915,167.447,80.89Z" transform="translate(-152.9 -79.859)" fill="#f47729"/>
    <path id="Path_4293" data-name="Path 4293" d="M88.734,83.25l-.074.036C88.689,83.273,88.713,83.26,88.734,83.25Z" transform="translate(-84.142 -81.918)" fill="#f47729"/>
    <path id="Path_4294" data-name="Path 4294" d="M112.172,74.51a.306.306,0,0,0-.062.011Z" transform="translate(-104.608 -74.29)" fill="#f47729"/>
    <path id="Path_4295" data-name="Path 4295" d="M98.29,78.4l.048-.02" transform="translate(-92.547 -77.668)" fill="#f47729"/>
    <path id="Path_4296" data-name="Path 4296" d="M177.33,85.749a.036.036,0,0,0-.01-.019A.052.052,0,0,0,177.33,85.749Z" transform="translate(-161.519 -84.083)" fill="#f47729"/>
    <path id="Path_4297" data-name="Path 4297" d="M97.23,78.766h.009C97.286,78.741,97.258,78.752,97.23,78.766Z" transform="translate(-91.621 -77.992)" fill="#f47729"/>
    <path id="Path_4298" data-name="Path 4298" d="M169.08,81.74l.019.014-.009-.008Z" transform="translate(-154.327 -80.6)" fill="#f47729"/>
    <path id="Path_4299" data-name="Path 4299" d="M186.79,93.32l.036.036a.309.309,0,0,0,.042.019Z" transform="translate(-169.783 -90.707)" fill="#f47729"/>
    <path id="Path_4300" data-name="Path 4300" d="M72.393,82.867c-.01.075-.036.191-.053.193l.011-.169-.008-.008v-.027a13.4,13.4,0,0,0,.039-2.006l.008.014-.009-.042c-.006-.093-.013-.185-.02-.276a.21.21,0,0,1,.02.081c.011-.191-.029-.165-.023-.33,0-.019,0-.01.009,0l-.034-.182c.013.036.028-.034.036.079-.006-.335-.115-.524-.1-.654l.008.027c-.045-.227-.064-.234-.073-.229s-.01.008-.019,0c-.017-.074-.032-.146-.05-.219l.02-.162-.043-.036c-.011-.046-.036-.137-.018-.127-.073-.164-.006.032-.056-.06a2.128,2.128,0,0,0-.108-.393.6.6,0,0,1-.066-.269c-.052-.069.055.213-.045-.01.037-.089-.117-.255-.172-.461.052.047.116.237.059.032a.382.382,0,0,1-.066-.1c-.023-.041-.043-.09-.065-.14a2.26,2.26,0,0,0-.127-.286c-.02,0-.073-.075-.14-.188L71.2,76.73c-.043-.064-.088-.127-.127-.188a1.469,1.469,0,0,0-.162-.262c-.1-.144-.228-.318-.318-.424H70.6a.548.548,0,0,1-.168-.14c-.07-.076-.162-.159-.237-.232.023-.011.057.009.145.08l-.14-.139a1.68,1.68,0,0,1-.186-.144l.057.01c-.1-.087-.2-.167-.312-.255a4.372,4.372,0,0,1-.36-.283c-.022.009.057.1.025.111l-.145-.107a.117.117,0,0,1,.071.025,1.011,1.011,0,0,1-.141-.092l.127.059c-.118-.1-.079-.027-.177-.1.015-.017-.065-.064-.041-.069a1.116,1.116,0,0,0,.127.087,3.359,3.359,0,0,1-.28-.228c0,.017-.015.025-.1-.024-.223-.135-.061-.07-.186-.159-.062-.019-.2-.111-.221-.084a.255.255,0,0,1-.093-.079c-.127-.057-.569-.27-.445-.174l.031.017-.022-.009c-.412-.151-.835-.372-1.259-.482v-.01l-.2-.055-.2-.048a2.8,2.8,0,0,0-.347-.069c-.075-.017-.173-.06-.139-.065-.2-.033-.219-.033-.5-.1.2.017-.065-.029.2.022a2.663,2.663,0,0,0-.588-.1c.1-.015-.187-.064-.311-.073l.177.046c-.137-.014-.255-.037-.382-.051l.071-.031a3.61,3.61,0,0,0-.725-.059c-.113,0-.22,0-.325-.009a1.727,1.727,0,0,1-.307-.038c-.141.02.286.031.159.056-.242-.017-.5-.08-.573-.076-.337-.024-.313.059-.663.057.046.014.089.041-.169.078-.243.017-.3-.029-.151-.053h.085c.078-.013.181-.027.083-.033l-.031.017a2.557,2.557,0,0,0-.265.01c-.089.01-.154.011-.117,0-.182.038-.075.033.061.022-.157.011-.279.025-.4.046s-.246.046-.406.069c.052,0,.1,0,.052.014a2.293,2.293,0,0,0-.509.148c-.182.027.051-.065-.255.036-.195.037-.051-.024.023-.055a4.042,4.042,0,0,1-.392.116c-.12.028-.224.051-.3.078l.144-.061c-.087.036-.158.062-.232.088h.093a.547.547,0,0,1-.163.042c-.083.047.083.018-.084.1-.118.031-.337.151-.389.134.336-.127,0-.031.2-.127a1.771,1.771,0,0,1-.167.065c-.014,0,.01-.011.032-.023-.351.112-.139.1-.486.255.034-.038-.1,0-.149.036.136-.069.079,0-.039.074a1.994,1.994,0,0,0-.342.191c.045-.022.087-.045.127-.064a1.9,1.9,0,0,1-.28.19c-.02,0,.127-.084.073-.06-.148.118-.382.182-.6.341-.108.057-.031-.024-.127.028a1.637,1.637,0,0,1-.255.173,1.664,1.664,0,0,0-.255.187c.088-.032.1-.046-.062.106.127-.106.262-.216.4-.317-.084.07-.16.149-.241.224.061-.046.127-.1.179-.144a1.581,1.581,0,0,1,.15-.108c-.116.1-.107.09-.033.067a1,1,0,0,0-.255.179,2.491,2.491,0,0,1-.269.21l-.036-.056a2.477,2.477,0,0,0-.395.34l-.2.2c-.067.071-.143.148-.229.228l.116-.1c-.027.062-.206.206-.3.33-.006-.025-.078.041-.127.08.014,0-.227.263-.219.326-.051.048-.107.1-.154.148a1.781,1.781,0,0,0-.219.341,2.078,2.078,0,0,1-.192.347c.041-.106-.065.027.056-.19a.908.908,0,0,0-.12.2c-.047.056-.145.311-.218.4a.538.538,0,0,1-.065.2h-.009c0,.029-.078.187-.008.1a1.426,1.426,0,0,0-.163.286,3.137,3.137,0,0,0-.144.353c-.041.127-.087.241-.127.351a2.105,2.105,0,0,1-.107.284,7.426,7.426,0,0,0-.155.818c0-.017-.011,0,0-.047-.074.328.029.211-.031.587-.053.191,0-.2-.025-.083-.037.022-.051.137-.051.279a2.341,2.341,0,0,1-.018.437v-.062a1.479,1.479,0,0,0,.018.356c.008.067.017.139.025.214s.028.151.037.23c0,0-.008-.014-.01,0,.036.106.062.262.107.426s.089.339.127.486c-.048-.087-.045-.127-.06-.069.017.067.025.055.039.059s.028.025.07.155a1.232,1.232,0,0,1,.025.318l-.071-.255a2.4,2.4,0,0,0,.121.457l-.022-.011c.127.382.168.37.3.774v-.046c.121.2.043.192.154.4l-.018.081c.06.143.238.485.347.737-.088-.127-.227-.424-.317-.6a4.182,4.182,0,0,0,.243.55A1.154,1.154,0,0,1,54.2,85.3a5.24,5.24,0,0,1,.33.659c-.05-.008.024.176.113.389a3.555,3.555,0,0,1,.22.569c.127.237.239.477.355.729s.235.515.382.792c-.041-.228.084.162.127.1a1.356,1.356,0,0,1,.1.19l-.011-.028.011.029.169.409c.032.1-.078-.115-.085-.1.145.284.037.127.12.327,0-.051.081.081.16.246l-.093-.241c.241.375.127.365.382.743L56.392,90a7.9,7.9,0,0,0,.571.913c.013.039.023.1-.032.01.265.484.662,1.033.85,1.418l-.036-.028a1.451,1.451,0,0,1,.169.255c-.009,0-.036-.027-.013.015a3.055,3.055,0,0,1,.219.339l-.076-.089a11.971,11.971,0,0,0,.71,1.058c-.043.025.164.393.27.575h-.009c.325.535.6.877.928,1.353.148.332.643,1.033.935,1.527-.041-.078.039-.009.1.074.066.118.235.293.186.3l-.027-.041a2.326,2.326,0,0,0,.305.515h.07c.244.521.864,1.213.979,1.511.023.025.045.053.069.081l.034.045.045.059c.076.1.15.2.214.277v-.008l-.008.05v.01l.428-.523c.1-.121.2-.255.337-.439l-.039.09c.163-.21.127-.322.279-.517l.081-.031a12.676,12.676,0,0,0,.831-1.111c0,.011,0,.029-.038.092.127-.174.524-.661.424-.636a2.748,2.748,0,0,0,.414-.6v.05a2.352,2.352,0,0,1,.246-.453c.038-.047.051-.039.018.008.117-.15.069-.15.234-.359l-.045.1a1.05,1.05,0,0,0,.176-.307A1.635,1.635,0,0,1,66.5,95.2a.826.826,0,0,1,.145-.269c.019-.01,0,.037-.015.06.241-.319.3-.509.481-.724.011,0,.025-.011.041-.028-.176.265-.322.473-.309.453.023.017.172-.193.09,0a6.2,6.2,0,0,1,.4-.705.2.2,0,0,1,.027-.022l-.011.024a.942.942,0,0,0,.083-.135q.185-.256.363-.517c-.033-.008.062-.145-.045-.028.013-.015-.01.022-.055.094a.509.509,0,0,0-.027.048v-.009l-.171.269a1.145,1.145,0,0,1,.179-.3c.018-.066.039-.139.053-.178.127-.127.332-.4.382-.421a8.03,8.03,0,0,0,.552-1.028.34.34,0,0,1,.111-.127c-.028.059-.069.127-.079.157a4.019,4.019,0,0,0,.323-.636c.159-.232-.047.155.143-.179l-.015.051c.437-.624.522-1.119.986-1.82a.313.313,0,0,1-.059.08c.482-.829.859-1.774,1.273-2.623a1.722,1.722,0,0,0,.14-.442l.053-.042c.022-.092.045-.183.062-.276a3.212,3.212,0,0,1,.21-.509,2.8,2.8,0,0,0,.2-.606l-.041.056c.014-.043.032-.1.048-.158s.031-.127.045-.181c.029-.113.053-.2.062-.182a.27.27,0,0,1,.022-.127h.019c.031-.145.045-.3.065-.442.039-.168.055-.151.073-.155s.018-.008.032-.045a1.081,1.081,0,0,0,.048-.23A1.372,1.372,0,0,0,72.393,82.867ZM67.66,93.528a.03.03,0,0,1,0-.01.106.106,0,0,1,0,.037c-.043.074-.064.094-.075.1.018-.032.043-.071.075-.125Zm.4-14.708a.72.72,0,0,1-.681.433,3.32,3.32,0,0,0-3.359,3.3h0a3.322,3.322,0,0,0,3.3,3.339.742.742,0,0,1,.68.448.715.715,0,0,1-.143.783A6.433,6.433,0,1,1,67.9,78.03a.719.719,0,0,1,.153.792Zm4.277,1.419v0Z" transform="translate(-53.161 -72.785)" fill="#f47729"/>
    <path id="Path_4301" data-name="Path 4301" d="M167.275,234.6c.006-.01.009-.017.017-.031l-.033.039a.041.041,0,0,1-.009.031Z" transform="translate(-152.73 -213.98)" fill="#f47729"/>
    <path id="Path_4302" data-name="Path 4302" d="M204.1,131.88a.367.367,0,0,0,.011.059Z" transform="translate(-184.89 -124.359)" fill="#f47729"/>
    <path id="Path_4303" data-name="Path 4303" d="M196.34,106.17a.3.3,0,0,1,.071.08.051.051,0,0,0,.009-.029C196.4,106.179,196.36,106.18,196.34,106.17Z" transform="translate(-178.118 -101.921)" fill="#f47729"/>
    <path id="Path_4304" data-name="Path 4304" d="M204,151.94v.034a.059.059,0,0,0,.018.009Z" transform="translate(-184.803 -141.866)" fill="#f47729"/>
    <path id="Path_4305" data-name="Path 4305" d="M151.6,75.674l.023-.024C151.493,75.625,151.62,75.661,151.6,75.674Z" transform="translate(-139.041 -75.278)" fill="#f47729"/>
    <path id="Path_4306" data-name="Path 4306" d="M133.15,73.07h0Z" transform="translate(-122.769 -73.034)" fill="#f47729"/>
    <path id="Path_4307" data-name="Path 4307" d="M201.127,116.8c-.085-.415,0,.089-.127-.328.038.1.061.214.09.321C201.083,116.731,201.078,116.653,201.127,116.8Z" transform="translate(-182.185 -110.91)" fill="#f47729"/>
    <path id="Path_4308" data-name="Path 4308" d="M197.835,108.291c-.061-.1-.076-.127-.025,0C197.9,108.453,197.825,108.286,197.835,108.291Z" transform="translate(-179.374 -103.699)" fill="#f47729"/>
    <path id="Path_4309" data-name="Path 4309" d="M55.76,120.921l.046-.029C55.83,120.8,55.791,120.769,55.76,120.921Z" transform="translate(-55.429 -114.702)" fill="#f47729"/>
    <path id="Path_4310" data-name="Path 4310" d="M58.543,163.789c-.039-.115-.067-.233-.093-.289A.85.85,0,0,0,58.543,163.789Z" transform="translate(-57.777 -151.955)" fill="#f47729"/>
    <path id="Path_4311" data-name="Path 4311" d="M68.322,99.19s-.013,0-.042.025A.175.175,0,0,0,68.322,99.19Z" transform="translate(-66.356 -95.83)" fill="#f47729"/>
    <path id="Path_4312" data-name="Path 4312" d="M55.26,123.577c0-.009.01-.02.015-.031l.015-.056Z" transform="translate(-54.993 -117.037)" fill="#f47729"/>
    <path id="Path_4313" data-name="Path 4313" d="M60.14,110.977a.079.079,0,0,0,.011-.015.317.317,0,0,1,.05-.092A.475.475,0,0,0,60.14,110.977Z" transform="translate(-59.252 -106.023)" fill="#f47729"/>
    <path id="Path_4314" data-name="Path 4314" d="M119.14,273.74l.123.164-.052-.08Z" transform="translate(-110.743 -248.165)" fill="#f47729"/>
    <path id="Path_4315" data-name="Path 4315" d="M73.293,197.436c-.069-.193.185.276.071-.01C73.366,197.458,73.195,197.2,73.293,197.436Z" transform="translate(-70.704 -181.485)" fill="#f47729"/>
  </g>
</svg>
