<svg xmlns="http://www.w3.org/2000/svg" xmlns:xlink="http://www.w3.org/1999/xlink" width="45" height="45" viewBox="0 0 45 45">
  <defs>
    <clipPath id="clip-path">
      <rect id="Rectangle_2026" data-name="Rectangle 2026" width="45" height="45" transform="translate(92 105)" fill="#f37728"/>
    </clipPath>
  </defs>
  <g id="Mask_Group_3538" data-name="Mask Group 3538" transform="translate(-92 -105)" clip-path="url(#clip-path)">
    <g id="_8675006_ic_fluent_food_egg_regular_icon" data-name="8675006_ic_fluent_food_egg_regular_icon" transform="translate(87.5 100.5)">
      <path id="Path_4456" data-name="Path 4456" d="M25.875,27.563a1.688,1.688,0,0,1,1.688-1.687,1.688,1.688,0,0,0,0-3.375A5.062,5.062,0,0,0,22.5,27.563a1.688,1.688,0,0,0,3.375,0Z" fill="#f37728"/>
      <path id="Path_4457" data-name="Path 4457" d="M15.75,28.125A12.375,12.375,0,1,1,28.125,40.5,12.375,12.375,0,0,1,15.75,28.125Zm12.375-9a9,9,0,1,0,9,9A9,9,0,0,0,28.125,19.125Z" fill="#f37728"/>
      <path id="Path_4458" data-name="Path 4458" d="M13.983,14.611A18.855,18.855,0,0,1,30.375,4.5C41.085,4.5,49.5,14,49.5,25.369a22.84,22.84,0,0,1-.306,3.736,7.072,7.072,0,0,0,.053,2.435,15.194,15.194,0,0,1-21.636,16.4,9.894,9.894,0,0,0-5.775-.857,14.253,14.253,0,0,1-2.149.162C11.175,47.25,4.5,39.817,4.5,30.938a16.608,16.608,0,0,1,7.108-13.816A7.418,7.418,0,0,0,13.983,14.611ZM30.375,7.875a15.484,15.484,0,0,0-13.438,8.367,10.784,10.784,0,0,1-3.44,3.676,13.235,13.235,0,0,0-5.623,11.02c0,7.275,5.413,12.938,11.813,12.938a10.9,10.9,0,0,0,1.641-.124A13.266,13.266,0,0,1,29.1,44.917a11.818,11.818,0,0,0,17.023-10.6,11.9,11.9,0,0,0-.2-2.16,10.434,10.434,0,0,1-.064-3.6,19.494,19.494,0,0,0,.26-3.185C46.125,15.552,38.926,7.875,30.375,7.875Z" fill="#f37728"/>
    </g>
  </g>
</svg>
