<svg xmlns="http://www.w3.org/2000/svg" xmlns:xlink="http://www.w3.org/1999/xlink" width="45" height="45" viewBox="0 0 45 45">
  <defs>
    <clipPath id="clip-path">
      <rect id="Rectangle_2026" data-name="Rectangle 2026" width="45" height="45" transform="translate(92 105)" fill="#f37728"/>
    </clipPath>
  </defs>
  <g id="Mask_Group_3547" data-name="Mask Group 3547" transform="translate(-92 -105)" clip-path="url(#clip-path)">
    <g id="_5404322_eat_food_restaurant_rice_icon" data-name="5404322_eat_food_restaurant_rice_icon" transform="translate(88.872 101.832)">
      <path id="Path_4477" data-name="Path 4477" d="M47.968,32.888a1.914,1.914,0,0,0-1.444-.8h-1.6V28.877a19.251,19.251,0,1,0-38.5,0v3.209h-1.6a1.914,1.914,0,0,0-1.444.8,1.457,1.457,0,0,0,0,1.6,13.055,13.055,0,0,0,11.872,7.219H36.257a13.092,13.092,0,0,0,11.872-7.38A4.442,4.442,0,0,0,47.968,32.888Zm-38.5-4.011a16.043,16.043,0,1,1,32.086,0v3.209H9.465ZM36.1,38.5H15.241a9.83,9.83,0,0,1-7.38-3.209H43.476A9.83,9.83,0,0,1,36.1,38.5Z" fill="#f37728"/>
      <path id="Path_4478" data-name="Path 4478" d="M36.417,25.187a1.592,1.592,0,1,0-2.086,2.406l2.406,2.086A1.354,1.354,0,0,0,37.861,30a1.822,1.822,0,0,0,1.283-.481,1.559,1.559,0,0,0-.16-2.246Z" fill="#f37728"/>
      <path id="Path_4479" data-name="Path 4479" d="M34.652,18.449l-2.406-2.086A1.592,1.592,0,0,0,30.16,18.77l2.406,2.086a1.354,1.354,0,0,0,1.123.321,1.822,1.822,0,0,0,1.283-.481A1.976,1.976,0,0,0,34.652,18.449Z" fill="#f37728"/>
      <path id="Path_4480" data-name="Path 4480" d="M14.759,26.631a1.592,1.592,0,1,0-2.086,2.406l2.406,2.086a1.354,1.354,0,0,0,1.123.321,1.822,1.822,0,0,0,1.283-.481,1.559,1.559,0,0,0-.16-2.246Z" fill="#f37728"/>
      <path id="Path_4481" data-name="Path 4481" d="M25.508,26.15a1.55,1.55,0,0,0-2.246.16,1.718,1.718,0,0,0,.16,2.246l2.406,2.086a1.354,1.354,0,0,0,1.123.321,1.822,1.822,0,0,0,1.283-.481,1.559,1.559,0,0,0-.16-2.246Z" fill="#f37728"/>
      <path id="Path_4482" data-name="Path 4482" d="M16.2,18.93a1.588,1.588,0,0,0-2.246,2.246l3.048,3.209a1.551,1.551,0,0,0,2.246,0,1.551,1.551,0,0,0,0-2.246Z" fill="#f37728"/>
      <path id="Path_4483" data-name="Path 4483" d="M25.989,21.818a1.733,1.733,0,0,0,1.123-.481,1.551,1.551,0,0,0,0-2.246l-3.048-3.209a1.588,1.588,0,0,0-2.246,2.246l3.048,3.209A1.456,1.456,0,0,0,25.989,21.818Z" fill="#f37728"/>
    </g>
  </g>
</svg>
