<svg xmlns="http://www.w3.org/2000/svg" width="19.248" height="27.433" viewBox="0 0 19.248 27.433">
  <path id="Path_4300" data-name="Path 4300" d="M72.393,82.867c-.01.075-.036.191-.053.193l.011-.169-.008-.008v-.027a13.4,13.4,0,0,0,.039-2.006l.008.014-.009-.042c-.006-.093-.013-.185-.02-.276a.21.21,0,0,1,.02.081c.011-.191-.029-.165-.023-.33,0-.019,0-.01.009,0l-.034-.182c.013.036.028-.034.036.079-.006-.335-.115-.524-.1-.654l.008.027c-.045-.227-.064-.234-.073-.229s-.01.008-.019,0c-.017-.074-.032-.146-.05-.219l.02-.162-.043-.036c-.011-.046-.036-.137-.018-.127-.073-.164-.006.032-.056-.06a2.128,2.128,0,0,0-.108-.393.6.6,0,0,1-.066-.269c-.052-.069.055.213-.045-.01.037-.089-.117-.255-.172-.461.052.047.116.237.059.032a.382.382,0,0,1-.066-.1c-.023-.041-.043-.09-.065-.14a2.26,2.26,0,0,0-.127-.286c-.02,0-.073-.075-.14-.188L71.2,76.73c-.043-.064-.088-.127-.127-.188a1.469,1.469,0,0,0-.162-.262c-.1-.144-.228-.318-.318-.424H70.6a.548.548,0,0,1-.168-.14c-.07-.076-.162-.159-.237-.232.023-.011.057.009.145.08l-.14-.139a1.68,1.68,0,0,1-.186-.144l.057.01c-.1-.087-.2-.167-.312-.255a4.372,4.372,0,0,1-.36-.283c-.022.009.057.1.025.111l-.145-.107a.117.117,0,0,1,.071.025,1.011,1.011,0,0,1-.141-.092l.127.059c-.118-.1-.079-.027-.177-.1.015-.017-.065-.064-.041-.069a1.116,1.116,0,0,0,.127.087,3.359,3.359,0,0,1-.28-.228c0,.017-.015.025-.1-.024-.223-.135-.061-.07-.186-.159-.062-.019-.2-.111-.221-.084a.255.255,0,0,1-.093-.079c-.127-.057-.569-.27-.445-.174l.031.017-.022-.009c-.412-.151-.835-.372-1.259-.482v-.01l-.2-.055-.2-.048a2.8,2.8,0,0,0-.347-.069c-.075-.017-.173-.06-.139-.065-.2-.033-.219-.033-.5-.1.2.017-.065-.029.2.022a2.663,2.663,0,0,0-.588-.1c.1-.015-.187-.064-.311-.073l.177.046c-.137-.014-.255-.037-.382-.051l.071-.031a3.61,3.61,0,0,0-.725-.059c-.113,0-.22,0-.325-.009a1.727,1.727,0,0,1-.307-.038c-.141.02.286.031.159.056-.242-.017-.5-.08-.573-.076-.337-.024-.313.059-.663.057.046.014.089.041-.169.078-.243.017-.3-.029-.151-.053h.085c.078-.013.181-.027.083-.033l-.031.017a2.557,2.557,0,0,0-.265.01c-.089.01-.154.011-.117,0-.182.038-.075.033.061.022-.157.011-.279.025-.4.046s-.246.046-.406.069c.052,0,.1,0,.052.014a2.293,2.293,0,0,0-.509.148c-.182.027.051-.065-.255.036-.195.037-.051-.024.023-.055a4.042,4.042,0,0,1-.392.116c-.12.028-.224.051-.3.078l.144-.061c-.087.036-.158.062-.232.088h.093a.547.547,0,0,1-.163.042c-.083.047.083.018-.084.1-.118.031-.337.151-.389.134.336-.127,0-.031.2-.127a1.771,1.771,0,0,1-.167.065c-.014,0,.01-.011.032-.023-.351.112-.139.1-.486.255.034-.038-.1,0-.149.036.136-.069.079,0-.039.074a1.994,1.994,0,0,0-.342.191c.045-.022.087-.045.127-.064a1.9,1.9,0,0,1-.28.19c-.02,0,.127-.084.073-.06-.148.118-.382.182-.6.341-.108.057-.031-.024-.127.028a1.637,1.637,0,0,1-.255.173,1.664,1.664,0,0,0-.255.187c.088-.032.1-.046-.062.106.127-.106.262-.216.4-.317-.084.07-.16.149-.241.224.061-.046.127-.1.179-.144a1.581,1.581,0,0,1,.15-.108c-.116.1-.107.09-.033.067a1,1,0,0,0-.255.179,2.491,2.491,0,0,1-.269.21l-.036-.056a2.477,2.477,0,0,0-.395.34l-.2.2c-.067.071-.143.148-.229.228l.116-.1c-.027.062-.206.206-.3.33-.006-.025-.078.041-.127.08.014,0-.227.263-.219.326-.051.048-.107.1-.154.148a1.781,1.781,0,0,0-.219.341,2.078,2.078,0,0,1-.192.347c.041-.106-.065.027.056-.19a.908.908,0,0,0-.12.2c-.047.056-.145.311-.218.4a.538.538,0,0,1-.065.2h-.009c0,.029-.078.187-.008.1a1.426,1.426,0,0,0-.163.286,3.137,3.137,0,0,0-.144.353c-.041.127-.087.241-.127.351a2.105,2.105,0,0,1-.107.284,7.426,7.426,0,0,0-.155.818c0-.017-.011,0,0-.047-.074.328.029.211-.031.587-.053.191,0-.2-.025-.083-.037.022-.051.137-.051.279a2.341,2.341,0,0,1-.018.437v-.062a1.479,1.479,0,0,0,.018.356c.008.067.017.139.025.214s.028.151.037.23c0,0-.008-.014-.01,0,.036.106.062.262.107.426s.089.339.127.486c-.048-.087-.045-.127-.06-.069.017.067.025.055.039.059s.028.025.07.155a1.232,1.232,0,0,1,.025.318l-.071-.255a2.4,2.4,0,0,0,.121.457l-.022-.011c.127.382.168.37.3.774v-.046c.121.2.043.192.154.4l-.018.081c.06.143.238.485.347.737-.088-.127-.227-.424-.317-.6a4.182,4.182,0,0,0,.243.55A1.154,1.154,0,0,1,54.2,85.3a5.24,5.24,0,0,1,.33.659c-.05-.008.024.176.113.389a3.555,3.555,0,0,1,.22.569c.127.237.239.477.355.729s.235.515.382.792c-.041-.228.084.162.127.1a1.356,1.356,0,0,1,.1.19l-.011-.028.011.029.169.409c.032.1-.078-.115-.085-.1.145.284.037.127.12.327,0-.051.081.081.16.246l-.093-.241c.241.375.127.365.382.743L56.392,90a7.9,7.9,0,0,0,.571.913c.013.039.023.1-.032.01.265.484.662,1.033.85,1.418l-.036-.028a1.451,1.451,0,0,1,.169.255c-.009,0-.036-.027-.013.015a3.055,3.055,0,0,1,.219.339l-.076-.089a11.971,11.971,0,0,0,.71,1.058c-.043.025.164.393.27.575h-.009c.325.535.6.877.928,1.353.148.332.643,1.033.935,1.527-.041-.078.039-.009.1.074.066.118.235.293.186.3l-.027-.041a2.326,2.326,0,0,0,.305.515h.07c.244.521.864,1.213.979,1.511.023.025.045.053.069.081l.034.045.045.059c.076.1.15.2.214.277v-.008l-.008.05v.01l.428-.523c.1-.121.2-.255.337-.439l-.039.09c.163-.21.127-.322.279-.517l.081-.031a12.676,12.676,0,0,0,.831-1.111c0,.011,0,.029-.038.092.127-.174.524-.661.424-.636a2.748,2.748,0,0,0,.414-.6v.05a2.352,2.352,0,0,1,.246-.453c.038-.047.051-.039.018.008.117-.15.069-.15.234-.359l-.045.1a1.05,1.05,0,0,0,.176-.307A1.635,1.635,0,0,1,66.5,95.2a.826.826,0,0,1,.145-.269c.019-.01,0,.037-.015.06.241-.319.3-.509.481-.724.011,0,.025-.011.041-.028-.176.265-.322.473-.309.453.023.017.172-.193.09,0a6.2,6.2,0,0,1,.4-.705.2.2,0,0,1,.027-.022l-.011.024a.942.942,0,0,0,.083-.135q.185-.256.363-.517c-.033-.008.062-.145-.045-.028.013-.015-.01.022-.055.094a.509.509,0,0,0-.027.048v-.009l-.171.269a1.145,1.145,0,0,1,.179-.3c.018-.066.039-.139.053-.178.127-.127.332-.4.382-.421a8.03,8.03,0,0,0,.552-1.028.34.34,0,0,1,.111-.127c-.028.059-.069.127-.079.157a4.019,4.019,0,0,0,.323-.636c.159-.232-.047.155.143-.179l-.015.051c.437-.624.522-1.119.986-1.82a.313.313,0,0,1-.059.08c.482-.829.859-1.774,1.273-2.623a1.722,1.722,0,0,0,.14-.442l.053-.042c.022-.092.045-.183.062-.276a3.212,3.212,0,0,1,.21-.509,2.8,2.8,0,0,0,.2-.606l-.041.056c.014-.043.032-.1.048-.158s.031-.127.045-.181c.029-.113.053-.2.062-.182a.27.27,0,0,1,.022-.127h.019c.031-.145.045-.3.065-.442.039-.168.055-.151.073-.155s.018-.008.032-.045a1.081,1.081,0,0,0,.048-.23A1.372,1.372,0,0,0,72.393,82.867ZM67.66,93.528a.03.03,0,0,1,0-.01.106.106,0,0,1,0,.037c-.043.074-.064.094-.075.1.018-.032.043-.071.075-.125Zm.4-14.708a.72.72,0,0,1-.681.433,3.32,3.32,0,0,0-3.359,3.3h0a3.322,3.322,0,0,0,3.3,3.339.742.742,0,0,1,.68.448.715.715,0,0,1-.143.783A6.433,6.433,0,1,1,67.9,78.03a.719.719,0,0,1,.153.792Zm4.277,1.419v0Z" transform="translate(-53.161 -72.785)" fill="#f47729"/>
</svg>
