<svg xmlns="http://www.w3.org/2000/svg" xmlns:xlink="http://www.w3.org/1999/xlink" width="18" height="18" viewBox="0 0 18 18">
  <defs>
    <clipPath id="clip-path">
      <rect id="Rectangle_2023" data-name="Rectangle 2023" width="18" height="18" transform="translate(27.72 1.216)" fill="#f37728"/>
    </clipPath>
  </defs>
  <g id="Mask_Group_3533" data-name="Mask Group 3533" transform="translate(-27.72 -1.216)" clip-path="url(#clip-path)">
    <g id="_8679527_e_bike_line_icon" data-name="8679527_e_bike_line_icon" transform="translate(27.72 1.216)">
      <path id="Path_4446" data-name="Path 4446" d="M0,0H18V18H0Z" fill="none"/>
      <path id="Path_4447" data-name="Path 4447" d="M12.342,5.608c1.773,1.023,3.865,2.915,3.864,4.961v6.547H11.794a2.456,2.456,0,0,1-4.632,0H2.75V10.57c0-2.047,2.091-3.938,3.864-4.961a3.252,3.252,0,0,1-.307-.767H3.75V3.2H6.308a3.275,3.275,0,0,1,6.34,0h2.558V4.841H12.648a3.29,3.29,0,0,1-.305.767ZM11.153,6.836a3.276,3.276,0,0,1-3.35,0C6.333,7.5,4.386,8.958,4.387,10.57v4.91H7.023V12.206a2.455,2.455,0,1,1,4.91,0V15.48H14.57V10.57c0-1.612-1.946-3.074-3.417-3.734ZM9.478,11.388a.818.818,0,0,0-.818.818V16.3a.818.818,0,1,0,1.637,0V12.206A.818.818,0,0,0,9.478,11.388Zm0-5.728A1.637,1.637,0,1,0,7.842,4.023,1.637,1.637,0,0,0,9.478,5.66Z" transform="translate(-0.478 -0.752)" fill="#f37728"/>
    </g>
  </g>
</svg>
