<svg xmlns="http://www.w3.org/2000/svg" xmlns:xlink="http://www.w3.org/1999/xlink" width="45" height="45" viewBox="0 0 45 45">
  <defs>
    <clipPath id="clip-path">
      <rect id="Rectangle_2026" data-name="Rectangle 2026" width="45" height="45" transform="translate(92 105)" fill="#f37728"/>
    </clipPath>
  </defs>
  <g id="Mask_Group_3546" data-name="Mask Group 3546" transform="translate(-92 -105)" clip-path="url(#clip-path)">
    <path id="_8675027_ic_fluent_leaf_two_regular_icon" data-name="8675027_ic_fluent_leaf_two_regular_icon" d="M4.505,10.585v9.664A13.5,13.5,0,0,0,18,33.749q.331,0,.657-.016A15.7,15.7,0,0,0,21.5,39.119l-5.243,5.24a1.687,1.687,0,1,0,2.386,2.387l5.243-5.241A15.747,15.747,0,0,0,49.505,29.24V17.431a3.937,3.937,0,0,0-3.937-3.937H33.759a15.78,15.78,0,0,0-3.807.463A13.5,13.5,0,0,0,18,6.75H8.34A3.835,3.835,0,0,0,4.505,10.585ZM26.287,39.1,35.5,29.89A1.687,1.687,0,1,0,33.118,27.5L23.9,36.716a12.373,12.373,0,0,1,9.859-19.847H45.568a.563.563,0,0,1,.562.562V29.24A12.373,12.373,0,0,1,26.287,39.1ZM18,10.125a10.12,10.12,0,0,1,8.742,5.013,15.818,15.818,0,0,0-6.1,5.376l-4.27-4.27a1.687,1.687,0,0,0-2.386,2.386l5.034,5.034a15.711,15.711,0,0,0-1.016,5.576q0,.572.04,1.134H18A10.125,10.125,0,0,1,7.88,20.249V10.585a.46.46,0,0,1,.46-.46Z" transform="translate(87.495 100.505)" fill="#f37728"/>
  </g>
</svg>
