<svg xmlns="http://www.w3.org/2000/svg" xmlns:xlink="http://www.w3.org/1999/xlink" width="45" height="45" viewBox="0 0 45 45">
  <defs>
    <clipPath id="clip-path">
      <rect id="Rectangle_2026" data-name="Rectangle 2026" width="45" height="45" transform="translate(92 105)" fill="#f37728"/>
    </clipPath>
  </defs>
  <g id="Mask_Group_3545" data-name="Mask Group 3545" transform="translate(-92 -105)" clip-path="url(#clip-path)">
    <g id="_392515_coda_eco_ecology_environment_flower_icon" data-name="392515_coda_eco_ecology_environment_flower_icon" transform="translate(94.183 106.746)">
      <path id="Path_4476" data-name="Path 4476" d="M39.143,1.263A1.473,1.473,0,0,0,37.711.134H37.7C29.945.182,11.08,1.483,3.464,12.477-.492,18.188-.833,25.6,2.452,34.518a1.4,1.4,0,0,0,.11.18A36.436,36.436,0,0,0,.922,39.592a1.473,1.473,0,0,0,2.881.619c.031-.15,3.784-15.278,17.052-24.123a1.473,1.473,0,1,0-1.635-2.451A44.909,44.909,0,0,0,4.337,30.805C2.387,24.062,2.9,18.467,5.887,14.154c5.881-8.49,19.831-10.537,28.251-10.97-1.812,2.653-3.791,7.516-3.791,16.1,0,4.6-1.3,8.133-3.872,10.516-4.118,3.816-10.808,4.174-15.7,3.806a1.473,1.473,0,0,0-.224,2.937c.979.075,2.025.121,3.112.121,4.981,0,10.792-.977,14.814-4.7,3.2-2.962,4.816-7.226,4.816-12.674,0-13.4,5.052-16.343,5.077-16.356A1.475,1.475,0,0,0,39.143,1.263Z" transform="translate(0 0)" fill="#f37728"/>
    </g>
  </g>
</svg>
